<mxfile host="Electron" agent="Mozilla/5.0 (Windows NT 10.0; Win64; x64) AppleWebKit/537.36 (KHTML, like Gecko) draw.io/24.7.17 Chrome/128.0.6613.36 Electron/32.0.1 Safari/537.36" version="24.7.17" pages="2">
  <diagram name="old" id="K0WUuwvTo57MoGLFDvia">
    <mxGraphModel dx="1060" dy="783" grid="1" gridSize="10" guides="1" tooltips="1" connect="1" arrows="1" fold="1" page="1" pageScale="1" pageWidth="827" pageHeight="1169" math="0" shadow="0">
      <root>
        <mxCell id="0" />
        <mxCell id="1" parent="0" />
        <mxCell id="sijabJkYd9OicPbtqLM7-3" value="" style="edgeStyle=orthogonalEdgeStyle;rounded=0;orthogonalLoop=1;jettySize=auto;html=1;" parent="1" source="sijabJkYd9OicPbtqLM7-1" target="sijabJkYd9OicPbtqLM7-2" edge="1">
          <mxGeometry relative="1" as="geometry" />
        </mxCell>
        <mxCell id="sijabJkYd9OicPbtqLM7-1" value="index.js" style="html=1;whiteSpace=wrap;" parent="1" vertex="1">
          <mxGeometry x="80" y="160" width="110" height="50" as="geometry" />
        </mxCell>
        <mxCell id="sijabJkYd9OicPbtqLM7-6" value="" style="edgeStyle=orthogonalEdgeStyle;rounded=0;orthogonalLoop=1;jettySize=auto;html=1;entryX=0;entryY=0.5;entryDx=0;entryDy=0;" parent="1" source="sijabJkYd9OicPbtqLM7-2" target="sijabJkYd9OicPbtqLM7-4" edge="1">
          <mxGeometry relative="1" as="geometry" />
        </mxCell>
        <mxCell id="sijabJkYd9OicPbtqLM7-8" style="edgeStyle=orthogonalEdgeStyle;rounded=0;orthogonalLoop=1;jettySize=auto;html=1;entryX=0;entryY=0.5;entryDx=0;entryDy=0;" parent="1" source="sijabJkYd9OicPbtqLM7-2" target="sijabJkYd9OicPbtqLM7-7" edge="1">
          <mxGeometry relative="1" as="geometry" />
        </mxCell>
        <mxCell id="sijabJkYd9OicPbtqLM7-10" style="edgeStyle=orthogonalEdgeStyle;rounded=0;orthogonalLoop=1;jettySize=auto;html=1;entryX=0;entryY=0.5;entryDx=0;entryDy=0;" parent="1" source="sijabJkYd9OicPbtqLM7-2" target="sijabJkYd9OicPbtqLM7-9" edge="1">
          <mxGeometry relative="1" as="geometry" />
        </mxCell>
        <mxCell id="sijabJkYd9OicPbtqLM7-17" style="edgeStyle=orthogonalEdgeStyle;rounded=0;orthogonalLoop=1;jettySize=auto;html=1;entryX=0;entryY=0.5;entryDx=0;entryDy=0;" parent="1" source="sijabJkYd9OicPbtqLM7-2" target="sijabJkYd9OicPbtqLM7-11" edge="1">
          <mxGeometry relative="1" as="geometry" />
        </mxCell>
        <mxCell id="sijabJkYd9OicPbtqLM7-18" style="edgeStyle=orthogonalEdgeStyle;rounded=0;orthogonalLoop=1;jettySize=auto;html=1;entryX=0;entryY=0.5;entryDx=0;entryDy=0;" parent="1" source="sijabJkYd9OicPbtqLM7-2" target="sijabJkYd9OicPbtqLM7-12" edge="1">
          <mxGeometry relative="1" as="geometry" />
        </mxCell>
        <mxCell id="sijabJkYd9OicPbtqLM7-19" style="edgeStyle=orthogonalEdgeStyle;rounded=0;orthogonalLoop=1;jettySize=auto;html=1;entryX=0;entryY=0.5;entryDx=0;entryDy=0;" parent="1" source="sijabJkYd9OicPbtqLM7-2" target="sijabJkYd9OicPbtqLM7-13" edge="1">
          <mxGeometry relative="1" as="geometry" />
        </mxCell>
        <mxCell id="sijabJkYd9OicPbtqLM7-20" style="edgeStyle=orthogonalEdgeStyle;rounded=0;orthogonalLoop=1;jettySize=auto;html=1;entryX=0;entryY=0.5;entryDx=0;entryDy=0;" parent="1" source="sijabJkYd9OicPbtqLM7-2" target="sijabJkYd9OicPbtqLM7-14" edge="1">
          <mxGeometry relative="1" as="geometry" />
        </mxCell>
        <mxCell id="sijabJkYd9OicPbtqLM7-21" style="edgeStyle=orthogonalEdgeStyle;rounded=0;orthogonalLoop=1;jettySize=auto;html=1;entryX=0;entryY=0.5;entryDx=0;entryDy=0;" parent="1" source="sijabJkYd9OicPbtqLM7-2" target="sijabJkYd9OicPbtqLM7-16" edge="1">
          <mxGeometry relative="1" as="geometry" />
        </mxCell>
        <mxCell id="sijabJkYd9OicPbtqLM7-22" style="edgeStyle=orthogonalEdgeStyle;rounded=0;orthogonalLoop=1;jettySize=auto;html=1;entryX=0;entryY=0.5;entryDx=0;entryDy=0;" parent="1" source="sijabJkYd9OicPbtqLM7-2" target="sijabJkYd9OicPbtqLM7-15" edge="1">
          <mxGeometry relative="1" as="geometry" />
        </mxCell>
        <mxCell id="sijabJkYd9OicPbtqLM7-2" value="App&lt;span style=&quot;background-color: initial;&quot;&gt;.js&lt;/span&gt;" style="html=1;whiteSpace=wrap;" parent="1" vertex="1">
          <mxGeometry x="170" y="270" width="110" height="50" as="geometry" />
        </mxCell>
        <mxCell id="sijabJkYd9OicPbtqLM7-4" value="&lt;span style=&quot;background-color: initial;&quot;&gt;Header.js&lt;/span&gt;" style="html=1;whiteSpace=wrap;" parent="1" vertex="1">
          <mxGeometry x="260" y="360" width="110" height="50" as="geometry" />
        </mxCell>
        <mxCell id="sijabJkYd9OicPbtqLM7-7" value="&lt;span style=&quot;background-color: initial;&quot;&gt;Footer.js&lt;/span&gt;" style="html=1;whiteSpace=wrap;" parent="1" vertex="1">
          <mxGeometry x="260" y="520" width="110" height="50" as="geometry" />
        </mxCell>
        <mxCell id="sijabJkYd9OicPbtqLM7-26" style="edgeStyle=orthogonalEdgeStyle;rounded=0;orthogonalLoop=1;jettySize=auto;html=1;entryX=0;entryY=0.5;entryDx=0;entryDy=0;" parent="1" source="sijabJkYd9OicPbtqLM7-9" target="sijabJkYd9OicPbtqLM7-25" edge="1">
          <mxGeometry relative="1" as="geometry" />
        </mxCell>
        <mxCell id="sijabJkYd9OicPbtqLM7-28" style="edgeStyle=orthogonalEdgeStyle;rounded=0;orthogonalLoop=1;jettySize=auto;html=1;entryX=0;entryY=0.5;entryDx=0;entryDy=0;" parent="1" source="sijabJkYd9OicPbtqLM7-9" target="sijabJkYd9OicPbtqLM7-27" edge="1">
          <mxGeometry relative="1" as="geometry" />
        </mxCell>
        <mxCell id="sijabJkYd9OicPbtqLM7-39" style="edgeStyle=orthogonalEdgeStyle;rounded=0;orthogonalLoop=1;jettySize=auto;html=1;" parent="1" source="sijabJkYd9OicPbtqLM7-9" target="sijabJkYd9OicPbtqLM7-38" edge="1">
          <mxGeometry relative="1" as="geometry" />
        </mxCell>
        <mxCell id="sijabJkYd9OicPbtqLM7-9" value="Router.js" style="html=1;whiteSpace=wrap;" parent="1" vertex="1">
          <mxGeometry x="260" y="440" width="110" height="50" as="geometry" />
        </mxCell>
        <mxCell id="sijabJkYd9OicPbtqLM7-34" style="edgeStyle=orthogonalEdgeStyle;rounded=0;orthogonalLoop=1;jettySize=auto;html=1;entryX=1;entryY=0.5;entryDx=0;entryDy=0;" parent="1" source="sijabJkYd9OicPbtqLM7-11" target="sijabJkYd9OicPbtqLM7-13" edge="1">
          <mxGeometry relative="1" as="geometry">
            <Array as="points">
              <mxPoint x="390" y="625" />
              <mxPoint x="390" y="785" />
            </Array>
          </mxGeometry>
        </mxCell>
        <mxCell id="sijabJkYd9OicPbtqLM7-11" value="EditProfilePopup.js" style="html=1;whiteSpace=wrap;" parent="1" vertex="1">
          <mxGeometry x="260" y="600" width="110" height="50" as="geometry" />
        </mxCell>
        <mxCell id="sijabJkYd9OicPbtqLM7-31" style="edgeStyle=orthogonalEdgeStyle;rounded=0;orthogonalLoop=1;jettySize=auto;html=1;entryX=1;entryY=0.5;entryDx=0;entryDy=0;exitX=1;exitY=0.5;exitDx=0;exitDy=0;" parent="1" source="sijabJkYd9OicPbtqLM7-12" target="sijabJkYd9OicPbtqLM7-13" edge="1">
          <mxGeometry relative="1" as="geometry" />
        </mxCell>
        <mxCell id="sijabJkYd9OicPbtqLM7-12" value="AddPlacePopup.js" style="html=1;whiteSpace=wrap;" parent="1" vertex="1">
          <mxGeometry x="260" y="680" width="110" height="50" as="geometry" />
        </mxCell>
        <mxCell id="sijabJkYd9OicPbtqLM7-13" value="PopupWithForm.js" style="html=1;whiteSpace=wrap;" parent="1" vertex="1">
          <mxGeometry x="260" y="760" width="110" height="50" as="geometry" />
        </mxCell>
        <mxCell id="sijabJkYd9OicPbtqLM7-30" style="edgeStyle=orthogonalEdgeStyle;rounded=0;orthogonalLoop=1;jettySize=auto;html=1;entryX=1;entryY=0.5;entryDx=0;entryDy=0;exitX=1;exitY=0.5;exitDx=0;exitDy=0;" parent="1" source="sijabJkYd9OicPbtqLM7-14" target="sijabJkYd9OicPbtqLM7-13" edge="1">
          <mxGeometry relative="1" as="geometry" />
        </mxCell>
        <mxCell id="sijabJkYd9OicPbtqLM7-14" value="EditAvatarPopup.js" style="html=1;whiteSpace=wrap;" parent="1" vertex="1">
          <mxGeometry x="260" y="840" width="110" height="50" as="geometry" />
        </mxCell>
        <mxCell id="sijabJkYd9OicPbtqLM7-15" value="InfoTooltip.js" style="html=1;whiteSpace=wrap;" parent="1" vertex="1">
          <mxGeometry x="260" y="1000" width="110" height="50" as="geometry" />
        </mxCell>
        <mxCell id="sijabJkYd9OicPbtqLM7-16" value="ImagePopup.js" style="html=1;whiteSpace=wrap;" parent="1" vertex="1">
          <mxGeometry x="260" y="920" width="110" height="50" as="geometry" />
        </mxCell>
        <mxCell id="sijabJkYd9OicPbtqLM7-37" style="edgeStyle=orthogonalEdgeStyle;rounded=0;orthogonalLoop=1;jettySize=auto;html=1;" parent="1" source="sijabJkYd9OicPbtqLM7-23" target="sijabJkYd9OicPbtqLM7-36" edge="1">
          <mxGeometry relative="1" as="geometry" />
        </mxCell>
        <mxCell id="sijabJkYd9OicPbtqLM7-23" value="Main.js" style="html=1;whiteSpace=wrap;" parent="1" vertex="1">
          <mxGeometry x="570" y="520" width="110" height="50" as="geometry" />
        </mxCell>
        <mxCell id="sijabJkYd9OicPbtqLM7-25" value="Login.js" style="html=1;whiteSpace=wrap;" parent="1" vertex="1">
          <mxGeometry x="490" y="670" width="110" height="50" as="geometry" />
        </mxCell>
        <mxCell id="sijabJkYd9OicPbtqLM7-27" value="Register.js" style="html=1;whiteSpace=wrap;" parent="1" vertex="1">
          <mxGeometry x="490" y="600" width="110" height="50" as="geometry" />
        </mxCell>
        <mxCell id="sijabJkYd9OicPbtqLM7-36" value="Card.js" style="html=1;whiteSpace=wrap;" parent="1" vertex="1">
          <mxGeometry x="680" y="610" width="110" height="50" as="geometry" />
        </mxCell>
        <mxCell id="sijabJkYd9OicPbtqLM7-40" style="edgeStyle=orthogonalEdgeStyle;rounded=0;orthogonalLoop=1;jettySize=auto;html=1;" parent="1" source="sijabJkYd9OicPbtqLM7-38" target="sijabJkYd9OicPbtqLM7-23" edge="1">
          <mxGeometry relative="1" as="geometry" />
        </mxCell>
        <mxCell id="sijabJkYd9OicPbtqLM7-38" value="ProtectedRoute.js" style="html=1;whiteSpace=wrap;" parent="1" vertex="1">
          <mxGeometry x="510" y="440" width="110" height="50" as="geometry" />
        </mxCell>
      </root>
    </mxGraphModel>
  </diagram>
  <diagram name="new" id="GAk5Vyd_gVG74dK5tPbQ">
    <mxGraphModel dx="1060" dy="783" grid="1" gridSize="10" guides="1" tooltips="1" connect="1" arrows="1" fold="1" page="1" pageScale="1" pageWidth="827" pageHeight="1169" math="0" shadow="0">
      <root>
        <mxCell id="LuXcyFAeUaLID8NzMAy0-0" />
        <mxCell id="LuXcyFAeUaLID8NzMAy0-1" parent="LuXcyFAeUaLID8NzMAy0-0" />
        <mxCell id="she7PS_FsPadM_aikkDA-1" value="Auth" style="shape=folder;fontStyle=1;tabWidth=110;tabHeight=30;tabPosition=left;html=1;boundedLbl=1;labelInHeader=1;container=1;collapsible=0;whiteSpace=wrap;" parent="LuXcyFAeUaLID8NzMAy0-1" vertex="1">
          <mxGeometry x="560" y="40" width="231" height="250" as="geometry" />
        </mxCell>
        <mxCell id="she7PS_FsPadM_aikkDA-2" value="" style="html=1;strokeColor=none;resizeWidth=1;resizeHeight=1;fillColor=none;part=1;connectable=0;allowArrows=0;deletable=0;whiteSpace=wrap;" parent="she7PS_FsPadM_aikkDA-1" vertex="1">
          <mxGeometry width="231.00000000000003" height="175" relative="1" as="geometry">
            <mxPoint y="30" as="offset" />
          </mxGeometry>
        </mxCell>
        <mxCell id="LuXcyFAeUaLID8NzMAy0-32" value="Register.js" style="html=1;whiteSpace=wrap;" parent="she7PS_FsPadM_aikkDA-1" vertex="1">
          <mxGeometry x="35.59" y="43.10344827586206" width="149.98" height="34.82758620689655" as="geometry" />
        </mxCell>
        <mxCell id="LuXcyFAeUaLID8NzMAy0-31" value="Login.js" style="html=1;whiteSpace=wrap;" parent="she7PS_FsPadM_aikkDA-1" vertex="1">
          <mxGeometry x="35.59" y="94.82758620689656" width="149.98" height="33.793103448275865" as="geometry" />
        </mxCell>
        <mxCell id="LuXcyFAeUaLID8NzMAy0-27" value="InfoTooltip.js" style="html=1;whiteSpace=wrap;" parent="she7PS_FsPadM_aikkDA-1" vertex="1">
          <mxGeometry x="35.59" y="146.55172413793102" width="144.41" height="43.103448275862064" as="geometry" />
        </mxCell>
        <mxCell id="she7PS_FsPadM_aikkDA-3" value="Profile" style="shape=folder;fontStyle=1;tabWidth=110;tabHeight=30;tabPosition=left;html=1;boundedLbl=1;labelInHeader=1;container=1;collapsible=0;whiteSpace=wrap;" parent="LuXcyFAeUaLID8NzMAy0-1" vertex="1">
          <mxGeometry x="561" y="360" width="230" height="210" as="geometry" />
        </mxCell>
        <mxCell id="she7PS_FsPadM_aikkDA-4" value="" style="html=1;strokeColor=none;resizeWidth=1;resizeHeight=1;fillColor=none;part=1;connectable=0;allowArrows=0;deletable=0;whiteSpace=wrap;" parent="she7PS_FsPadM_aikkDA-3" vertex="1">
          <mxGeometry width="230.00000000000003" height="147" relative="1" as="geometry">
            <mxPoint y="30" as="offset" />
          </mxGeometry>
        </mxCell>
        <mxCell id="LuXcyFAeUaLID8NzMAy0-21" value="EditProfilePopup.js" style="html=1;whiteSpace=wrap;" parent="she7PS_FsPadM_aikkDA-3" vertex="1">
          <mxGeometry x="20" y="60" width="110" height="50" as="geometry" />
        </mxCell>
        <mxCell id="LuXcyFAeUaLID8NzMAy0-26" value="EditAvatarPopup.js" style="html=1;whiteSpace=wrap;" parent="she7PS_FsPadM_aikkDA-3" vertex="1">
          <mxGeometry x="20" y="130" width="110" height="50" as="geometry" />
        </mxCell>
        <mxCell id="she7PS_FsPadM_aikkDA-5" value="Shared" style="shape=folder;fontStyle=1;tabWidth=110;tabHeight=30;tabPosition=left;html=1;boundedLbl=1;labelInHeader=1;container=1;collapsible=0;whiteSpace=wrap;" parent="LuXcyFAeUaLID8NzMAy0-1" vertex="1">
          <mxGeometry x="170" y="30" width="170" height="140" as="geometry" />
        </mxCell>
        <mxCell id="she7PS_FsPadM_aikkDA-6" value="" style="html=1;strokeColor=none;resizeWidth=1;resizeHeight=1;fillColor=none;part=1;connectable=0;allowArrows=0;deletable=0;whiteSpace=wrap;" parent="she7PS_FsPadM_aikkDA-5" vertex="1">
          <mxGeometry width="170" height="98" relative="1" as="geometry">
            <mxPoint y="30" as="offset" />
          </mxGeometry>
        </mxCell>
        <mxCell id="LuXcyFAeUaLID8NzMAy0-24" value="PopupWithForm.js" style="html=1;whiteSpace=wrap;" parent="she7PS_FsPadM_aikkDA-5" vertex="1">
          <mxGeometry x="10" y="40" width="115.22" height="33.33" as="geometry" />
        </mxCell>
        <mxCell id="T85WNWFtp_KDh2o0c2C_-0" value="Host" style="shape=folder;fontStyle=1;tabWidth=110;tabHeight=30;tabPosition=left;html=1;boundedLbl=1;labelInHeader=1;container=1;collapsible=0;whiteSpace=wrap;" vertex="1" parent="LuXcyFAeUaLID8NzMAy0-1">
          <mxGeometry x="40" y="280" width="230" height="390" as="geometry" />
        </mxCell>
        <mxCell id="T85WNWFtp_KDh2o0c2C_-1" value="" style="html=1;strokeColor=none;resizeWidth=1;resizeHeight=1;fillColor=none;part=1;connectable=0;allowArrows=0;deletable=0;whiteSpace=wrap;" vertex="1" parent="T85WNWFtp_KDh2o0c2C_-0">
          <mxGeometry width="230.00000000000003" height="272.99999999999994" relative="1" as="geometry">
            <mxPoint y="30" as="offset" />
          </mxGeometry>
        </mxCell>
        <mxCell id="LuXcyFAeUaLID8NzMAy0-14" value="&lt;span style=&quot;background-color: initial;&quot;&gt;Header.js&lt;/span&gt;" style="html=1;whiteSpace=wrap;" parent="T85WNWFtp_KDh2o0c2C_-0" vertex="1">
          <mxGeometry x="20" y="40.00279069767442" width="110" height="36.90488372093023" as="geometry" />
        </mxCell>
        <mxCell id="LuXcyFAeUaLID8NzMAy0-15" value="&lt;span style=&quot;background-color: initial;&quot;&gt;Footer.js&lt;/span&gt;" style="html=1;whiteSpace=wrap;" parent="T85WNWFtp_KDh2o0c2C_-0" vertex="1">
          <mxGeometry x="20" y="320.00255813953487" width="110" height="36.05205882352941" as="geometry" />
        </mxCell>
        <mxCell id="LuXcyFAeUaLID8NzMAy0-19" value="Router.js" style="html=1;whiteSpace=wrap;" parent="T85WNWFtp_KDh2o0c2C_-0" vertex="1">
          <mxGeometry x="20" y="90" width="110" height="38.55" as="geometry" />
        </mxCell>
        <mxCell id="LuXcyFAeUaLID8NzMAy0-35" value="ProtectedRoute.js" style="html=1;whiteSpace=wrap;" parent="T85WNWFtp_KDh2o0c2C_-0" vertex="1">
          <mxGeometry x="20" y="145.12" width="110" height="44.88" as="geometry" />
        </mxCell>
        <mxCell id="LuXcyFAeUaLID8NzMAy0-3" value="index.js" style="html=1;whiteSpace=wrap;" parent="T85WNWFtp_KDh2o0c2C_-0" vertex="1">
          <mxGeometry x="20" y="210" width="110" height="39.53" as="geometry" />
        </mxCell>
        <mxCell id="LuXcyFAeUaLID8NzMAy0-13" value="App&lt;span style=&quot;background-color: initial;&quot;&gt;.js&lt;/span&gt;" style="html=1;whiteSpace=wrap;" parent="T85WNWFtp_KDh2o0c2C_-0" vertex="1">
          <mxGeometry x="20" y="260" width="110" height="38.72" as="geometry" />
        </mxCell>
        <mxCell id="T85WNWFtp_KDh2o0c2C_-3" value="Main" style="shape=folder;fontStyle=1;tabWidth=110;tabHeight=30;tabPosition=left;html=1;boundedLbl=1;labelInHeader=1;container=1;collapsible=0;whiteSpace=wrap;" vertex="1" parent="LuXcyFAeUaLID8NzMAy0-1">
          <mxGeometry x="561" y="600" width="230" height="320" as="geometry" />
        </mxCell>
        <mxCell id="T85WNWFtp_KDh2o0c2C_-4" value="" style="html=1;strokeColor=none;resizeWidth=1;resizeHeight=1;fillColor=none;part=1;connectable=0;allowArrows=0;deletable=0;whiteSpace=wrap;" vertex="1" parent="T85WNWFtp_KDh2o0c2C_-3">
          <mxGeometry width="230.00000000000009" height="224" relative="1" as="geometry">
            <mxPoint y="30" as="offset" />
          </mxGeometry>
        </mxCell>
        <mxCell id="LuXcyFAeUaLID8NzMAy0-30" value="Main.js" style="html=1;whiteSpace=wrap;" parent="T85WNWFtp_KDh2o0c2C_-3" vertex="1">
          <mxGeometry x="15.092380952380953" y="50" width="138.2409523809524" height="43.82" as="geometry" />
        </mxCell>
        <mxCell id="LuXcyFAeUaLID8NzMAy0-23" value="AddPlacePopup.js" style="html=1;whiteSpace=wrap;" parent="T85WNWFtp_KDh2o0c2C_-3" vertex="1">
          <mxGeometry x="15.092380952380953" y="175" width="138.2409523809524" height="35" as="geometry" />
        </mxCell>
        <mxCell id="LuXcyFAeUaLID8NzMAy0-28" value="ImagePopup.js" style="html=1;whiteSpace=wrap;" parent="T85WNWFtp_KDh2o0c2C_-3" vertex="1">
          <mxGeometry x="15.092380952380953" y="225" width="138.2409523809524" height="50" as="geometry" />
        </mxCell>
        <mxCell id="LuXcyFAeUaLID8NzMAy0-33" value="Card.js" style="html=1;whiteSpace=wrap;" parent="T85WNWFtp_KDh2o0c2C_-3" vertex="1">
          <mxGeometry x="15.09238095238095" y="110" width="133.15904761904764" height="37.14" as="geometry" />
        </mxCell>
      </root>
    </mxGraphModel>
  </diagram>
</mxfile>
